# xmcd
#
# Track frame offsets: 
#        150
#        20929
#        38777
#        63001
#        81408
#        99792
#        119346
#        136292
#        149965
#        165707
#        184447
#        210478
#        227668
#        244707
#
# Disc length: 3499 seconds
#
# Revision: 0
# Processed by: cddbd v1.5.2PL0 Copyright (c) Steve Scherf et al.
# Submitted via: ExactAudioCopy v0.95b4
#
DISCID=c80da90e
DTITLE=Hank Dogs - Half Smile
DYEAR=2002
DGENRE=Bluegrass
TTITLE0=Same New
TTITLE1=Torture
TTITLE2=Bed Of Rice
TTITLE3=Half Smile
TTITLE4=Let Alone Me
TTITLE5=Woman Who...
TTITLE6=Whole Way
TTITLE7=Little Door
TTITLE8=Singers
TTITLE9=Belief
TTITLE10=Hollywood
TTITLE11=Rise
TTITLE12=Never Fails
TTITLE13=Heyday
EXTD=
EXTT0=
EXTT1=
EXTT2=
EXTT3=
EXTT4=
EXTT5=
EXTT6=
EXTT7=
EXTT8=
EXTT9=
EXTT10=
EXTT11=
EXTT12=
EXTT13=
PLAYORDER=
